<svg width="40" height="40" viewBox="0 0 40 40" fill="none" xmlns="http://www.w3.org/2000/svg">
<rect x="0.5" y="0.5" width="39" height="39" fill="#2A2A2A"/>
<rect x="0.5" y="0.5" width="39" height="39" stroke="#444748"/>
<path d="M13 30C12.45 30 11.9792 29.8042 11.5875 29.4125C11.1958 29.0208 11 28.55 11 28V14C11 13.45 11.1958 12.9792 11.5875 12.5875C11.9792 12.1958 12.45 12 13 12H14V10H16V12H24V10H26V12H27C27.55 12 28.0208 12.1958 28.4125 12.5875C28.8042 12.9792 29 13.45 29 14V28C29 28.55 28.8042 29.0208 28.4125 29.4125C28.0208 29.8042 27.55 30 27 30H13ZM13 28H27V18H13V28ZM13 16H27V14H13V16ZM13 16V14V16Z" fill="#C4C7C7"/>
</svg>
